# xmcd
#
# Track frame offsets:
#	182
#	16027
#	30052
#	43477
#	62152
#	77305
#	92372
#	111017
#	127250
#	143827
#	157567
#	170965
#	185955
#	204415
#
# Disc length: 2935 seconds
#
# Revision: 1
# Processed by: cddbd v1.5.1PL0 Copyright (c) Steve Scherf et al.
# Submitted via: audiograbber 1.80
#
DISCID=b00b750e
DTITLE=Josef Laufer - Ty jsi slibil ze mi povis
DYEAR=1900
DGENRE=
TTITLE0=Necekej me s placem
TTITLE1=Toulavej plast
TTITLE2=Zabloudil bych rad a nahle
TTITLE3=Predposledni stanice
TTITLE4=Detroit City
TTITLE5=Pivo (Fever)
TTITLE6=Boxer
TTITLE7=Muze za to laska
TTITLE8=Za patou mili
TTITLE9=Nudo
TTITLE10=To se stava
TTITLE11=Jsou to prachy co nas deli
TTITLE12=Divoky vino
TTITLE13=Ty jsi slibil ze mi povis
EXTD=
EXTT0=
EXTT1=
EXTT2=
EXTT3=
EXTT4=
EXTT5=
EXTT6=
EXTT7=
EXTT8=
EXTT9=
EXTT10=
EXTT11=
EXTT12=
EXTT13=
PLAYORDER=
